<svg width="5791" height="2370" xmlns="http://www.w3.org/2000/svg" enable-background="new 0 0 5791 2370">
 <title>Excelize logo</title>

 <g>
  <title>Layer 1</title>
  <path id="svg_1" fill="#6ad7e5" d="m1106.5,368.9c94.6,-135.6 282.8,24.1 153.5,128.6l-153.5,-128.6z"/>
  <path id="svg_2" stroke-width="6" stroke-linejoin="round" stroke-linecap="round" stroke="#000" fill="none" d="m1106.5,368.9c94.6,-135.6 282.8,24.1 153.5,128.6l-153.5,-128.6z"/>
  <path id="svg_3" fill="#6ad7e5" d="m435.8,741.2c-176.7,-17.7 -89.3,-253.9 61.4,-189.6l-61.4,189.6z"/>
  <path id="svg_4" stroke-width="6" stroke-linejoin="round" stroke-linecap="round" stroke="#000" fill="none" d="m435.8,741.2c-176.7,-17.7 -89.3,-253.9 61.4,-189.6l-61.4,189.6z"/>
  <path id="svg_5" d="m1223.9,442.3c15.4,-20.3 23.5,-42 0,-59.8c-21.8,-16.5 -42.2,-4.1 -57.6,16.3l57.6,43.5z"/>
  <path id="svg_6" d="m441.5,679.1c-24.3,-7.8 -43.4,-20.9 -34.3,-49c8.4,-26 32.2,-27.5 56.5,-19.7l-22.2,68.7z"/>
  <path id="svg_7" fill="#6ad7e5" d="m787,376.4c166,-41.4 327.6,-56.5 448.5,82.8c117.4,160.6 139.6,359.9 197.8,546.1c50,159.9 117.9,342.1 80.1,511.2c-39.7,177.9 -227.7,267.1 -392.2,301.9c-129.2,27.3 -294.3,24.1 -395.7,-74.8c-119,-116.1 -129.7,-330.2 -161.7,-484.4c-37.8,-182.8 -139.3,-350.2 -124,-542c15.8,-199 171.8,-282 347.2,-340.8"/>
  <path id="svg_8" stroke-width="6" stroke-linejoin="round" stroke-linecap="round" stroke="#000" fill="none" d="m787,376.4c166,-41.4 327.6,-56.5 448.5,82.8c117.4,160.6 139.6,359.9 197.8,546.1c50,159.9 117.9,342.1 80.1,511.2c-39.7,177.9 -227.7,267.1 -392.2,301.9c-129.2,27.3 -294.3,24.1 -395.7,-74.8c-119,-116.1 -129.7,-330.2 -161.7,-484.4c-37.8,-182.8 -139.3,-350.2 -124,-542c15.8,-199 171.8,-282 347.2,-340.8"/>
  <path id="svg_9" fill="#f6d2a2" d="m826.3,734.6c-32.5,11.1 -49.7,57.3 -24.7,84.2c33.1,35.6 72.9,-22.1 105.7,-25.8c36.7,-8.4 76.1,22.1 97.5,-17c23.8,-43.5 -31.5,-66.3 -71.8,-72.6l-106.7,31.2z"/>
  <path id="svg_10" stroke-width="6" stroke-linejoin="round" stroke-linecap="round" stroke="#231f20" fill="none" d="m826.3,734.6c-32.5,11.1 -49.7,57.3 -24.7,84.2c33.1,35.6 72.9,-22.1 105.7,-25.8c36.7,-8.4 76.1,22.1 97.5,-17c23.8,-43.5 -31.5,-66.3 -71.8,-72.6l-106.7,31.2z"/>
  <path id="svg_11" d="m821.7,734c-16.8,-56.8 91,-91.3 115.9,-46.5c24.9,44.7 -99.9,87.7 -115.9,46.5c-12.7,-33 0,0 0,0z"/>
  <path id="svg_12" fill="#fff" d="m957.9,789.4c5.7,22.5 17,46.5 18.8,71.6c-3,12.3 -14,16.3 -22.7,23.1c-14,1.2 -27.5,-4.8 -36,-16c-10.3,-26.5 -12.1,-54.2 -18.1,-81.7l58,3z"/>
  <path id="svg_13" stroke-width="6" stroke-linejoin="round" stroke-linecap="round" stroke="#000" fill="none" d="m957.9,789.4c5.7,22.5 17,46.5 18.8,71.6c-3,12.3 -14,16.3 -22.7,23.1c-14,1.2 -27.5,-4.8 -36,-16c-10.3,-26.5 -12.1,-54.2 -18.1,-81.7l58,3z"/>
  <path id="svg_14" fill="#fff" d="m540.6,705.6c76.3,141.2 308.2,42.4 261.3,-106.7c-56.1,-178.5 -344.5,-69.4 -261.3,106.7"/>
  <path id="svg_15" stroke-width="6" stroke-linejoin="round" stroke-linecap="round" stroke="#000" fill="none" d="m540.6,705.6c76.3,141.2 308.2,42.4 261.3,-106.7c-56.1,-178.5 -344.5,-69.4 -261.3,106.7"/>
  <path id="svg_16" fill="#fff" d="m872.1,593.2c73,165.9 344.8,49.4 260.6,-115.2c-75.6,-147.7 -310.6,-43 -260.6,115.2"/>
  <path id="svg_17" stroke-width="6" stroke-linejoin="round" stroke-linecap="round" stroke="#000" fill="none" d="m872.1,593.2c73,165.9 344.8,49.4 260.6,-115.2c-75.6,-147.7 -310.6,-43 -260.6,115.2"/>
  <path id="svg_18" fill="#c6b198" d="m1524.7,1027.4c-6.9,-0.8 -14,-0.8 -19.7,-5.4"/>
  <path id="svg_19" stroke-width="6" stroke-linejoin="round" stroke-linecap="round" stroke="#000" fill="none" d="m1524.7,1027.4c-6.9,-0.8 -14,-0.8 -19.7,-5.4"/>
  <path id="svg_20" fill="#fff" d="m841,819.2c-7,47.6 42.2,126.9 74.6,51.2c-10.3,-26.5 -12.1,-54.2 -18.1,-81.7l-56.5,30.5z"/>
  <path id="svg_21" stroke-width="6" stroke-linejoin="round" stroke-linecap="round" stroke="#000" fill="none" d="m841,819.2c-7,47.6 42.2,126.9 74.6,51.2c-10.3,-26.5 -12.1,-54.2 -18.1,-81.7l-56.5,30.5z"/>
  <path id="svg_22" fill="#f6d2a2" d="m1530.9,1006.3c8.7,43.8 -39.6,34.6 -62.6,25.9c-21.8,-8.2 -24.6,3.8 -32.5,-21.1c-5.2,-16.4 -11.3,-32.6 -14.5,-49.6c27.5,-9.6 59.8,-10.5 87,0.5c14,5.7 43.1,27.7 22.6,44.3"/>
  <path id="svg_23" stroke-width="6" stroke-linejoin="round" stroke-linecap="round" stroke="#000" fill="none" d="m1530.9,1006.3c8.7,43.8 -39.6,34.6 -62.6,25.9c-21.8,-8.2 -24.6,3.8 -32.5,-21.1c-5.2,-16.4 -11.3,-32.6 -14.5,-49.6c27.5,-9.6 59.8,-10.5 87,0.5c14,5.7 43.1,27.7 22.6,44.3"/>
  <path id="svg_24" stroke-width="6" stroke-linejoin="round" stroke-linecap="round" stroke="#000" fill="none" d="m1546.3,1714.5c-11.1,-12.9 -17.9,-29.5 -33.2,-38.3"/>
  <path id="svg_25" fill="#f6d2a2" d="m1473.8,1612.3c38.5,12.3 115,59.5 72.5,102.2c-37.1,56 -87,-29.6 -132.4,-31.9c12.1,-29.2 29.5,-57.4 59.9,-70.3z"/>
  <path id="svg_26" stroke-width="6" stroke-linejoin="round" stroke-linecap="round" stroke="#000" fill="none" d="m1473.8,1612.3c38.5,12.3 115,59.5 72.5,102.2c-37.1,56 -87,-29.6 -132.4,-31.9c12.1,-29.2 29.5,-57.4 59.9,-70.3z"/>
  <path id="svg_27" d="m1049.2,562.9c20,13.3 26.9,41.3 15.6,62.5c-11.4,21.2 -36.8,27.5 -56.7,14.1c-20,-13.3 -26.9,-41.3 -15.6,-62.5c11.4,-21.1 36.8,-27.5 56.7,-14.1"/>
  <path id="svg_28" fill="#fff" d="m1043.6,607.6c4.8,3.5 6.6,10.6 4,15.9s-8.6,6.8 -13.4,3.3s-6.6,-10.6 -4,-15.9s8.6,-6.8 13.4,-3.3"/>
  <path id="svg_29" d="m698.4,668.9c20.2,13.3 27.2,41.3 15.6,62.5s-37.5,27.7 -57.7,14.4s-27.2,-41.3 -15.6,-62.5s37.5,-27.7 57.7,-14.4"/>
  <path id="svg_30" fill="#fff" d="m693.6,719.2c4.8,3.4 6.6,10.6 4,15.9c-2.7,5.3 -8.8,6.8 -13.6,3.4s-6.6,-10.6 -4,-15.9c2.7,-5.4 8.8,-6.9 13.6,-3.4"/>
  <path id="svg_31" fill="#c6b198" d="m475.8,1294.8c5.7,-3.9 12,-7.2 14.8,-14"/>
  <path id="svg_32" stroke-width="3" stroke-linejoin="round" stroke-linecap="round" stroke="#000" fill="none" d="m475.8,1294.8c5.7,-3.9 12,-7.2 14.8,-14"/>
  <path id="svg_33" fill="#f6d2a2" d="m475,1294.8c12.9,42.8 51.2,12 67.4,-6.5c15.4,-17.5 23.5,-8.2 18.8,-33.9c-3.1,-16.9 -5.3,-34.1 -10.4,-50.6c-28.8,4.5 -57.7,18.8 -76.6,41.3c-9.7,11.6 -25.1,44.7 0.8,49.7"/>
  <path id="svg_34" stroke-width="6" stroke-linejoin="round" stroke-linecap="round" stroke="#000" fill="none" d="m475,1294.8c12.9,42.8 51.2,12 67.4,-6.5c15.4,-17.5 23.5,-8.2 18.8,-33.9c-3.1,-16.9 -5.3,-34.1 -10.4,-50.6c-28.8,4.5 -57.7,18.8 -76.6,41.3c-9.7,11.6 -25.1,44.7 0.8,49.7"/>
  <path id="svg_35" fill="#21a366" d="m1235.4,1017.8l-393.3,0c-27.2,0 -49.2,22 -49.2,49.2l0,209l442.5,258.1l221.2,93.4l221.2,-93.4l0,-258.1l-442.4,-258.2z"/>
  <path id="svg_36" fill="#107c41" d="m792.9,1275.9l442.5,0l0,258.1l-442.5,0l0,-258.1z"/>
  <path id="svg_37" fill="#33c481" d="m1628.8,1017.8l-393.3,0l0,258.1l442.5,0l0,-209c0,-13 -5.2,-25.5 -14.4,-34.8s-21.8,-14.4 -34.8,-14.3z"/>
  <path id="svg_38" fill="#185c37" d="m1235.4,1534l-442.5,0l0,467.1c0,27.2 22,49.2 49.2,49.2l786.7,0c27.2,0 49.2,-22 49.2,-49.2l0,-209l-442.6,-258.1z"/>
  <path id="svg_39" fill="#107c41" d="m1235.4,1534l442.5,0l0,258.1l-442.5,0l0,-258.1z"/>
  <path id="svg_40" fill="#165634" d="m1075.6,1262.6l-282.7,0l0,626.9l282.7,0c27.1,-0.1 49.1,-22 49.2,-49.2l0,-528.5c-0.1,-27.2 -22,-49.1 -49.2,-49.2z"/>
  <path id="svg_41" fill="#13452b" d="m1038.8,1239l-245.9,0l0,626.9l245.8,0c27.1,-0.1 49.1,-22 49.2,-49.2l0,-528.5c-0.1,-27.2 -22,-49.1 -49.1,-49.2z"/>
  <path id="svg_42" fill="#107c41" d="m547.1,1239l491.7,0c27.2,0 49.2,22 49.2,49.2l0,491.7c0,27.2 -22,49.2 -49.2,49.2l-491.7,0c-13,0 -25.5,-5.2 -34.8,-14.4c-9.2,-9.2 -14.4,-21.7 -14.4,-34.8l0,-491.7c0,-27.2 22,-49.2 49.2,-49.2z"/>
  <path id="svg_43" fill="#fff" d="m637.3,1700.2l100.8,-156.1l-92.3,-155.3l74.2,0l50.4,99.2c4.6,9.4 7.8,16.4 9.6,21.1l0.7,0c3.3,-7.5 6.8,-14.8 10.4,-21.9l53.8,-98.4l68.2,0l-94.7,154.4l97.1,157l-72.5,0l-58.2,-109c-2.7,-4.6 -5.1,-9.5 -6.9,-14.5l-0.9,0c-1.7,4.9 -4,9.7 -6.7,14.1l-59.9,109.4l-73.1,0z"/>
  <text xml:space="preserve" text-anchor="start" font-family="Noto Sans JP" font-size="250" id="svg_97" y="1005" x="2651.16648" stroke-width="0" stroke="#000000" fill="#84D3DB">XLSX phone parser</text>
  <text style="cursor: move;" xml:space="preserve" text-anchor="start" font-family="Noto Sans JP" font-size="125" stroke-width="0" fill="#666666" id="svg_98" y="1645" x="2657.83315">Go library for parsing phone from xlsx</text>
 </g>
</svg>